<svg width="49" height="49" viewBox="0 0 49 49" fill="none" xmlns="http://www.w3.org/2000/svg">
<path d="M48.4199 24.314C48.4199 37.454 37.7699 48.104 24.6299 48.104C11.4899 48.104 0.839844 37.454 0.839844 24.314C0.839844 11.174 11.4899 0.523926 24.6299 0.523926C37.7699 0.523926 48.4199 11.174 48.4199 24.314Z" fill="#231F20"/>
<path d="M26.4001 25.3537C26.0701 25.3637 26.0401 25.6837 26.0401 25.8537C26.0401 28.9237 26.0401 31.983 26.0401 35.053C26.0401 35.593 26.0301 36.2834 25.5101 36.2834C23.8401 36.2834 24.6301 36.3137 22.3501 36.3137C21.8101 36.3137 21.7401 36.3234 21.7401 35.7834V25.7834C21.7401 25.2834 21.7401 25.2737 21.2401 25.2737C20.4101 25.2737 20.0501 25.2737 19.2201 25.2737C18.6401 25.2737 18.6801 25.2236 18.6701 24.7336C18.6401 24.0236 18.6401 22.0131 18.6401 21.4231C18.6401 21.1931 18.7101 21.1233 18.9401 21.1233C19.7401 21.1333 20.5401 21.1233 21.3301 21.1233C21.6201 21.1233 21.7101 21.0529 21.7101 20.7629C21.7001 19.6329 21.6801 18.4935 21.7201 17.3635C21.8301 14.7435 23.2601 13.0333 25.8101 12.4133C26.8701 12.1533 27.9501 12.2134 29.0201 12.2434C29.4701 12.2634 29.8701 12.303 30.3701 12.343C30.5801 12.353 30.6201 12.4433 30.6101 12.6233C30.5801 13.7533 30.5601 14.8937 30.5401 16.0237C30.5401 16.2537 30.4401 16.2834 30.2401 16.2834C29.2901 16.2834 28.3401 16.203 27.4001 16.303C26.6101 16.383 26.2301 16.7532 26.1601 17.5432C26.0601 18.6632 26.1401 19.7835 26.1101 20.9035C26.1101 21.1735 26.2901 21.1233 26.4401 21.1233H30.1901C30.6401 21.1233 30.6601 21.1232 30.6101 21.5832C30.4901 22.7532 30.2901 23.8838 30.1001 24.9338C30.0301 25.3038 29.9101 25.3332 29.6001 25.3332C28.2601 25.3332 27.6801 25.333 26.3901 25.343" fill="white"/>
</svg>
