<svg width="48" height="49" viewBox="0 0 48 49" fill="none" xmlns="http://www.w3.org/2000/svg">
<g id="Group 7">
<path id="Vector" d="M47.9999 24.314C47.9999 37.454 37.3499 48.104 24.2099 48.104C11.0699 48.104 0.419922 37.454 0.419922 24.314C0.419922 11.174 11.0699 0.523926 24.2099 0.523926C37.3499 0.523926 47.9999 11.174 47.9999 24.314Z" fill="#231F20"/>
<path id="Vector_2" d="M36.6798 24.3638C36.6798 26.7238 36.7098 29.0839 36.6798 31.4439C36.6298 34.9739 34.8598 36.7537 31.3198 36.7837C26.5998 36.8237 21.8798 36.8237 17.1598 36.7837C13.5498 36.7537 11.7598 34.9535 11.7398 31.3335C11.7098 26.6135 11.7098 21.8941 11.7398 17.1841C11.7698 13.6841 13.5898 11.8733 17.1098 11.8433C21.8298 11.8033 26.5498 11.8133 31.2698 11.8433C34.8898 11.8733 36.6398 13.6535 36.6798 17.2935C36.7098 19.6535 36.6798 22.0136 36.6798 24.3736" fill="white"/>
<path id="Vector_3" d="M17.7601 21.7739C16.8001 25.3439 17.62 28.2541 20.73 30.1841C23.18 31.7041 25.79 31.5838 28.12 29.9038C30.86 27.9438 31.6001 25.0037 30.7001 21.7837C32.5101 21.7837 33.53 21.7837 33.53 21.7837C33.53 21.7837 34.43 21.6437 34.42 23.5337C34.42 25.6837 34.45 29.3534 34.41 31.5034C34.37 33.5634 33.48 34.4934 31.43 34.5034C26.61 34.5434 21.78 34.5434 16.96 34.5034C14.94 34.4834 14.02 33.5331 13.98 31.4731C13.93 28.5931 13.9901 25.7037 13.9501 22.8237C13.9401 22.0237 14.14 21.7537 15 21.7437C16.01 21.7437 16.52 21.7432 17.75 21.7632" fill="#231F20"/>
<path id="Vector_4" d="M24.2699 28.7137C21.9299 28.7437 19.8899 26.8243 19.8299 24.5243C19.7599 22.0143 21.7199 19.9241 24.1699 19.9041C26.6299 19.8741 28.6399 21.9237 28.6199 24.4237C28.5999 26.7137 26.5999 28.6837 24.2699 28.7137Z" fill="#231F20"/>
<path id="Vector_5" d="M29.5796 16.7437C29.5796 15.337 30.3596 14.6333 31.9196 14.6333C33.1662 14.6333 33.7896 15.4471 33.7896 17.0737C33.7896 18.3137 32.9762 18.9341 31.3495 18.9341C30.1695 18.9341 29.5796 18.2037 29.5796 16.7437Z" fill="#231F20"/>
</g>
</svg>
