<svg width="48" height="49" viewBox="0 0 48 49" fill="none" xmlns="http://www.w3.org/2000/svg">
<g id="Group 8">
<path id="Vector" d="M47.58 24.314C47.58 37.454 36.93 48.104 23.79 48.104C10.65 48.104 0 37.454 0 24.314C0 11.174 10.65 0.523926 23.79 0.523926C36.93 0.523926 47.58 11.174 47.58 24.314Z" fill="#231F20"/>
<path id="Vector_2" d="M25.1301 22.1036C27.3501 19.5536 30.5401 19.0931 32.9701 20.0431C33.9501 20.4531 35.0901 21.5429 35.6001 22.8829C36.0601 24.0929 36.2401 25.3537 36.2501 26.6437C36.2701 29.7437 36.2701 32.8435 36.3301 35.9435C36.3501 36.6535 36.1101 36.8231 35.4501 36.7931C34.0501 36.7931 33.0901 36.7931 31.7601 36.7931C31.1901 36.7931 31.0001 36.6529 31.0101 36.0529C31.0401 33.4229 31.0201 30.7834 31.0301 28.1534C31.0301 27.5634 31.0001 26.9737 30.8801 26.3937C30.6301 25.1637 29.9401 24.4829 28.8701 24.3429C27.1001 24.1129 26.2601 24.6832 25.7401 25.8732C25.5201 26.3732 25.4301 26.9032 25.4001 27.4532C25.2601 30.2832 25.3101 33.1135 25.3501 35.9435C25.3501 36.6235 25.16 36.8331 24.48 36.7931C22.9 36.7931 22.0901 36.7931 20.7201 36.7931C20.2401 36.8031 20.0801 36.6532 20.0801 36.1632C20.1001 31.0232 20.1001 25.8735 20.0801 20.7335C20.0801 20.2235 20.2301 20.0529 20.7501 20.0529H24.5201C25.0101 20.0529 25.1501 20.2435 25.1501 20.6935C25.1501 21.1035 25.1501 21.5136 25.1501 22.1036" fill="white"/>
<path id="Vector_3" d="M11.6701 28.4341C11.6701 25.9241 11.6902 23.4138 11.6602 20.9038C11.6602 20.2738 11.7901 20.0532 12.4801 20.0532C13.7901 20.0532 14.7901 20.0532 16.0901 20.0532C16.8201 20.0532 16.9401 20.3038 16.9401 20.9438C16.9201 24.5638 16.9301 28.1835 16.9301 31.7935C16.9301 33.2235 16.9301 34.6537 16.9601 36.0737C16.9701 36.6037 16.8101 36.8132 16.2401 36.8032H12.3301C11.8001 36.8132 11.6602 36.6238 11.6602 36.1138C11.6802 33.5538 11.6701 30.9941 11.6701 28.4341Z" fill="white"/>
<path id="Vector_4" d="M17.3302 14.8834C17.3302 16.6134 16.0303 17.8939 14.2903 17.9039C12.6203 17.9039 11.2302 16.5041 11.2502 14.8541C11.2802 13.1741 12.6502 11.8138 14.3302 11.8238C16.0402 11.8338 17.3402 13.1534 17.3302 14.8834Z" fill="white"/>
</g>
</svg>
