<svg width="49" height="49" viewBox="0 0 49 49" fill="none" xmlns="http://www.w3.org/2000/svg">
<g id="Group 9">
<path id="Vector" d="M48.16 24.314C48.16 37.454 37.5101 48.104 24.3701 48.104C11.2301 48.104 0.580078 37.454 0.580078 24.314C0.580078 11.174 11.2301 0.523926 24.3701 0.523926C37.5101 0.523926 48.16 11.174 48.16 24.314Z" fill="#231F20"/>
<path id="Vector_2" d="M11.4401 32.6535C12.0701 32.7035 12.6901 32.7035 13.3101 32.6535C14.0001 32.6035 14.6801 32.4731 15.3501 32.2931C16.4501 31.9931 17.47 31.5237 18.42 30.8937C18.65 30.7437 18.8801 30.5837 19.1301 30.3537C17.9601 30.2937 16.92 29.9534 16.02 29.2834C15.12 28.6134 14.4801 27.7334 14.1101 26.6134C14.9001 26.7534 15.6701 26.7234 16.4301 26.5334C16.4301 26.4334 13.92 25.703 12.92 23.883C12.44 23.073 12.2301 22.1833 12.2001 21.2433C12.2001 21.1033 12.2801 21.1833 12.3201 21.2033C12.8501 21.4833 13.4101 21.6631 14.0001 21.7531C14.1901 21.7831 14.3801 21.7829 14.6001 21.8029C12.1801 19.8029 11.6601 17.4234 12.9401 14.5734C13.2701 14.9434 13.58 15.2837 13.89 15.6037C14.72 16.4637 15.65 17.2037 16.66 17.8537C17.97 18.6837 19.3701 19.313 20.8701 19.713C21.8701 19.983 22.8901 20.1528 23.9301 20.2228C24.1301 20.2328 24.1501 20.1633 24.1201 19.9933C23.7701 17.9533 24.3801 16.2234 25.9301 14.8634C27.0201 13.9134 28.33 13.5137 29.78 13.6037C31.13 13.6937 32.2801 14.213 33.2301 15.173C33.3301 15.273 33.42 15.2831 33.55 15.2531C34.58 15.0231 35.5701 14.6637 36.5001 14.1437C36.5701 14.1037 36.64 14.0728 36.77 14.0128C36.33 15.2728 35.5801 16.213 34.5101 16.923C35.5101 16.853 36.4601 16.5632 37.4401 16.1632C37.3101 16.4532 37.1401 16.6429 36.9801 16.8429C36.4001 17.5629 35.7601 18.2131 35.0101 18.7531C34.8801 18.8531 34.8201 18.9637 34.8301 19.1437C34.8801 20.6337 34.7001 22.0934 34.3101 23.5334C33.7501 25.6134 32.83 27.4933 31.52 29.2033C30.54 30.4833 29.39 31.5835 28.05 32.4835C27.03 33.1735 25.93 33.723 24.77 34.133C23.69 34.513 22.5801 34.7637 21.4501 34.8937C20.3701 35.0237 19.2901 35.043 18.2101 34.963C16.8401 34.863 15.5001 34.5629 14.2101 34.0929C13.2201 33.7329 12.2801 33.2835 11.3801 32.7335C11.3501 32.7135 11.32 32.6835 11.29 32.6535C11.34 32.6235 11.3901 32.6237 11.4301 32.6437" fill="white"/>
</g>
</svg>
