<svg width="16" height="16" viewBox="0 0 16 16" fill="none" xmlns="http://www.w3.org/2000/svg">
<rect width="16" height="16" fill="black"/>
<path d="M1 6.67776C1 7.64695 1.68617 8.35144 2.62889 8.35144C3.57161 8.35144 4.26388 7.64695 4.26388 6.67776C4.26388 5.70857 3.56754 5 2.62889 5C1.69024 5 1 5.71264 1 6.67776ZM1.45405 6.67776C1.45405 5.94679 1.94272 5.41333 2.63093 5.41333C3.31913 5.41333 3.80779 5.94679 3.80779 6.67776C3.80779 7.40872 3.31913 7.93811 2.63093 7.93811C1.94272 7.93811 1.45405 7.40872 1.45405 6.67776ZM13.4691 5.21583L12.2149 8.29443H12.6954L12.9866 7.63473H14.4404L14.7315 8.29443H15.21V8.29036L13.9578 5.21583C13.913 5.10588 13.8133 5.05294 13.7135 5.05294C13.6137 5.05294 13.5139 5.10791 13.4712 5.21583M13.7135 5.74522L14.2734 7.23972H13.1536L13.7135 5.74522ZM9.20349 5.05498V8.29239H11.1948V7.89128H9.65348V5.05498H9.20349ZM5.47333 5.05498V5.45202H6.50768C6.94341 5.45202 7.23457 5.66377 7.23457 6.06081C7.23457 6.45786 6.94748 6.66961 6.50768 6.66961H5.92128C5.67287 6.66961 5.47129 6.87119 5.47129 7.11959V8.29443H5.92128V7.14606C5.92128 7.10127 5.95793 7.06462 6.00273 7.06462H6.55655L7.31399 8.29443H7.84337L7.033 6.99132C7.42597 6.85083 7.68862 6.53319 7.68862 6.06285C7.68862 5.41537 7.19182 5.05905 6.54841 5.05905H5.47333V5.05498Z" fill="white"/>
<path d="M3.62047 9.5918H3.4413V10.8868H3.62047V9.5918Z" fill="white"/>
<path d="M6.61966 9.75672H6.02512V10.168H6.52804V10.3289H6.02512V10.8868H5.84594V9.5918H6.61966V9.75672Z" fill="white"/>
<path d="M7.29362 9.5918H7.11444V10.8868H7.29362V9.5918Z" fill="white"/>
<path d="M8.7474 10.8602L8.07753 9.946V10.8887H7.89835V9.67927C7.89835 9.60189 7.992 9.56524 8.04494 9.62022L8.71482 10.5344V9.59375H8.894V10.8032C8.894 10.8806 8.80034 10.9172 8.7474 10.8622" fill="white"/>
<path d="M9.68605 9.5918H9.50687V10.8868H9.68605V9.5918Z" fill="white"/>
<path d="M11.2742 9.75061H10.8202V10.8868H10.641V9.75061H10.1869V9.5918H11.2742V9.75061Z" fill="white"/>
<path d="M12.2902 10.3391V10.8868H12.109V10.3411L11.6305 9.5918H11.8403L12.2007 10.1599L12.557 9.5918H12.7687L12.2902 10.3391Z" fill="white"/>
<path d="M5.0824 10.8602L4.41253 9.946V10.8887H4.23335V9.67927C4.23335 9.60189 4.327 9.56524 4.37994 9.62022L5.04982 10.5344V9.59375H5.229V10.8032C5.229 10.8806 5.13534 10.9172 5.0824 10.8622" fill="white"/>
</svg>
