<svg width="94" height="51" viewBox="0 0 94 51" fill="none" xmlns="http://www.w3.org/2000/svg">
<g id="Group">
<path id="Vector" d="M56.7449 49.9428H57.4745V46.0348H56.7449V49.9428ZM52.6356 48.341C52.8872 47.5779 53.0885 46.9489 53.1807 46.5883C53.273 46.9237 53.4659 47.4521 53.7678 48.341H52.6272H52.6356ZM53.9439 48.9532L54.3045 49.9512H55.076L53.6671 46.0432H52.753L51.4028 49.9512H52.124L52.4679 48.9532H53.9439ZM47.6205 48.1817H48.4088C48.9372 48.1817 49.172 48.4165 49.172 48.7687C49.172 49.1713 48.9205 49.3726 48.4508 49.3726H47.6205V48.1817ZM47.6205 47.6114V46.6134H48.476C48.8533 46.6134 49.0798 46.7896 49.0798 47.1082C49.0798 47.4269 48.8953 47.6114 48.4424 47.6114H47.6205ZM46.8993 49.9512H48.585C49.3817 49.9512 49.9184 49.4816 49.9184 48.7855C49.9184 48.2572 49.5494 47.9804 49.2811 47.8798C49.5578 47.7708 49.801 47.4772 49.801 47.0328C49.801 46.5128 49.432 46.0348 48.5347 46.0348H46.8993V49.9428V49.9512ZM41.6327 46.0432V48.3662C41.6327 49.6325 42.3707 50.0015 43.2261 50.0015C44.0815 50.0015 44.8362 49.6577 44.8362 48.341V46.0432H44.1066V48.383C44.1066 49.1545 43.7628 49.4229 43.2429 49.4229C42.7984 49.4229 42.3707 49.1881 42.3707 48.383V46.0432H41.641H41.6327ZM37.1375 46.6386H37.842C38.6723 46.6386 39.0161 47.2676 39.0161 47.9553C39.0161 48.7604 38.6471 49.3474 37.842 49.3474H37.1375V46.6386ZM36.4079 49.9512H37.8755C39.0496 49.9512 39.7709 49.0958 39.7709 47.9553C39.7709 46.8147 39.0245 46.0432 37.9007 46.0432H36.4079V49.9512ZM14.293 37.9755H15.2156V31.5683H14.293V31.3838H16.9515C18.503 31.3838 19.61 32.734 19.61 34.7299C19.61 35.9795 19.1823 37.0278 18.4862 37.6316C17.9579 38.0845 17.3793 38.16 16.5825 38.16H14.3014V37.9755H14.293ZM16.0206 31.5683V37.9755H16.5574C17.3205 37.9755 17.8237 37.9 18.1759 37.4303C18.5785 36.8936 18.7127 36.0466 18.7127 34.8389C18.7127 32.5159 18.394 31.5599 16.9012 31.5599H16.0206V31.5683ZM23.8871 35.9208C23.8871 37.271 23.0568 38.2774 22.1259 38.2774C21.195 38.2774 20.3648 37.2794 20.3648 35.9208C20.3648 34.5622 21.195 33.581 22.1259 33.581C23.0568 33.581 23.8871 34.5706 23.8871 35.9208ZM21.1531 35.9208C21.1531 37.4052 21.3376 38.1096 22.1259 38.1096C22.9143 38.1096 23.0987 37.4052 23.0987 35.9208C23.0987 34.4364 22.9059 33.7319 22.1259 33.7319C21.346 33.7319 21.1531 34.4448 21.1531 35.9208ZM26.9732 33.581C27.3171 33.581 27.6106 33.8577 27.6106 34.2603C27.6106 34.5287 27.4345 34.7299 27.1829 34.7299C26.9565 34.7299 26.7888 34.5706 26.7888 34.3358C26.7888 34.1009 26.9397 33.9332 27.1494 33.9332C27.2416 33.9332 27.3422 33.9751 27.4345 34.059C27.3422 33.841 27.1577 33.7319 26.9229 33.7319C26.3778 33.7319 25.8662 34.5706 25.8662 35.904V38.009H26.5288V38.16H24.4992V38.009H25.1534V33.841H24.4992V33.69H25.8243L25.8662 34.7802C26.0843 33.9919 26.4533 33.581 26.9732 33.581ZM29.8833 38.2774C28.9608 38.2774 28.1222 37.2794 28.1222 35.9376C28.1222 35.2079 28.399 34.5203 28.8854 34.0339C29.1873 33.7319 29.5395 33.581 29.984 33.581C30.6046 33.581 31.0994 34.0842 31.0994 34.7131C31.0994 35.0822 30.8897 35.3002 30.6046 35.3002C30.3446 35.3002 30.1601 35.0989 30.1601 34.8557C30.1601 34.6125 30.3446 34.4112 30.5962 34.4112C30.7304 34.4112 30.831 34.4699 30.94 34.579C30.831 34.0422 30.4704 33.7319 29.9756 33.7319C29.0447 33.7319 28.9189 34.5203 28.9189 36.1221C28.9189 37.4639 29.1202 38.1013 29.9169 38.1013C30.6297 38.1013 31.1665 37.4974 31.2419 36.4491H31.3929C31.3006 37.6148 30.722 38.269 29.8917 38.269M34.3281 33.8074C33.7159 33.8074 33.154 34.6041 33.154 35.904V38.0006H33.8082V38.1516H31.7787V38.0006H32.4412V31.5431H31.7787V31.3838H33.154V34.8893C33.3637 34.0422 33.8837 33.5726 34.5043 33.5726C35.1248 33.5726 35.6196 34.1093 35.6196 35.057V38.0006H36.2738V38.1516H34.2443V38.0006H34.9068V34.7383C34.9068 34.1177 34.7055 33.8158 34.3113 33.8158M40.0392 36.7846C39.8631 37.7406 39.3096 38.269 38.5632 38.269C37.5485 38.269 36.735 37.2626 36.735 35.8872C36.735 35.1996 36.9615 34.6041 37.4311 34.0758C37.733 33.7319 38.0936 33.5726 38.4961 33.5726C39.3348 33.5726 40.0225 34.4029 40.056 35.8034H37.5233C37.5149 35.9711 37.5065 36.1472 37.5065 36.2982C37.5065 37.5226 37.8336 38.1013 38.6303 38.1013C39.209 38.1013 39.7122 37.6232 39.8799 36.7846H40.0392ZM39.2929 35.6524C39.3012 35.4679 39.3012 35.3002 39.3012 35.1492C39.3012 34.168 39.1168 33.7319 38.4794 33.7319C37.842 33.7319 37.5569 34.3442 37.5233 35.6524H39.2845H39.2929ZM42.53 38.1096C43.0164 38.1096 43.377 37.7239 43.377 37.2458C43.377 36.6336 42.8906 36.3988 42.0687 35.9795C41.3727 35.6189 40.945 35.3924 40.945 34.7048C40.945 34.0171 41.4314 33.581 42.052 33.581C42.3958 33.581 42.7313 33.7487 43.05 34.1009L43.5532 33.6816H43.5699V35.3505H43.4609C43.2261 34.319 42.639 33.7403 42.0436 33.7403C41.6578 33.7403 41.3978 34.0003 41.3978 34.319C41.3978 34.8557 41.8256 35.0402 42.4545 35.3589C43.3351 35.795 43.7879 36.1388 43.7879 36.902C43.7879 37.6652 43.2344 38.2774 42.53 38.2774C42.1107 38.2774 41.7081 38.0677 41.3894 37.6568L40.9534 38.1767H40.8527V36.3317H40.9534C41.2385 37.4807 41.8507 38.1096 42.5216 38.1096M44.2492 33.8326V33.6816H44.9705V32.323C45.3059 32.2643 45.5323 32.0631 45.6749 31.736V33.69H46.5135V33.841H45.6749V37.5142C45.6749 37.9084 45.7336 38.0845 46.0104 38.0845C46.371 38.0845 46.6393 37.7406 46.6813 37.1033H46.8322C46.7735 37.8748 46.4465 38.2774 45.8762 38.2774C45.264 38.2774 44.9621 37.9503 44.9621 37.3129V33.8326H44.2408H44.2492ZM50.7067 36.7846C50.539 37.7406 49.9771 38.269 49.2308 38.269C48.216 38.269 47.4025 37.2626 47.4025 35.8872C47.4025 35.1996 47.6289 34.6041 48.0986 34.0758C48.4005 33.7319 48.7695 33.5726 49.1636 33.5726C50.0023 33.5726 50.69 34.4029 50.7235 35.8034H48.1908C48.1824 35.9711 48.1741 36.1472 48.1741 36.2982C48.1741 37.5226 48.5011 38.1013 49.2978 38.1013C49.8765 38.1013 50.3797 37.6232 50.5474 36.7846H50.7067ZM49.9688 35.6524C49.9771 35.4679 49.9771 35.3002 49.9771 35.1492C49.9771 34.168 49.7926 33.7319 49.1553 33.7319C48.5179 33.7319 48.2327 34.3442 48.1992 35.6524H49.9604H49.9688ZM53.8013 33.5726C54.1451 33.5726 54.4387 33.8494 54.4387 34.2519C54.4387 34.5203 54.2709 34.7215 54.011 34.7215C53.7845 34.7215 53.6252 34.5622 53.6252 34.3274C53.6252 34.0926 53.7762 33.9248 53.9858 33.9248C54.0865 33.9248 54.1787 33.9668 54.2709 34.0506C54.1787 33.8326 53.9942 33.7236 53.7594 33.7236C53.2143 33.7236 52.7027 34.5622 52.7027 35.8956V38.0006H53.3652V38.1516H51.3357V38.0006H51.9899V33.8326H51.3357V33.6816H52.6608L52.7027 34.7719C52.9207 33.9835 53.2897 33.5726 53.8097 33.5726M62.8251 31.2747L62.02 34.3441H61.8858C61.9026 34.1429 61.9026 33.9416 61.9026 33.7236C61.9026 32.2308 61.4832 31.4508 60.7369 31.4508C60.2169 31.4508 59.7137 31.8869 59.2524 32.7591C58.4809 34.1764 58.1119 35.5182 58.1119 36.6923C58.1119 37.6148 58.5229 38.0929 59.286 38.0929C60.2085 38.0929 60.9717 37.3129 61.6007 35.7195L61.7684 35.7782C61.1142 37.4303 60.2756 38.2774 59.3279 38.2774C58.1622 38.2774 57.3572 37.2878 57.3572 35.8369C57.3572 35.057 57.592 34.2016 58.0784 33.3546C58.8499 32.0043 59.8814 31.2915 60.7285 31.2915C61.1058 31.2915 61.391 31.4508 61.7013 31.7779C61.869 31.9624 61.9613 32.105 62.0954 32.105C62.3219 32.105 62.5064 31.8115 62.6573 31.2915H62.8167L62.8251 31.2747ZM65.9532 35.1325C65.9532 35.7363 65.7855 36.3401 65.4584 36.902C64.9384 37.791 64.2424 38.269 63.6218 38.269C63.0012 38.269 62.4225 37.5981 62.4225 36.6336C62.4225 35.9543 62.6741 35.2079 63.1437 34.5454C63.5882 33.9164 64.2424 33.5726 64.7875 33.5726C65.4416 33.5726 65.9616 34.168 65.9616 35.1325M64.0411 34.2351C63.605 34.9228 63.4205 35.5518 63.2528 36.0885C63.0683 36.6756 63.0012 37.1536 63.0012 37.4303C63.0012 37.8413 63.2528 38.0929 63.605 38.0929C63.9153 38.0929 64.1753 37.8916 64.4101 37.4807C65.1565 36.1388 65.4249 34.9731 65.4249 34.4029C65.4249 33.9668 65.1984 33.7152 64.8043 33.7152C64.5359 33.7152 64.2591 33.8997 64.0411 34.2267M66.8925 37.8413C66.8925 37.9922 66.9763 38.0929 67.0938 38.0929C67.4376 38.0929 67.8569 37.5142 68.4607 36.382L68.5949 36.4491C67.9827 37.6316 67.5047 38.2606 67.1189 38.2606C66.775 38.2606 66.4816 37.8748 66.4816 37.2878C66.4816 37.0194 66.5738 36.5917 66.7751 36.0047L68.0582 32.1721C68.1252 31.9792 68.1672 31.845 68.1672 31.7528C68.1672 31.585 68.0498 31.5347 67.7227 31.5347H67.3453L67.3956 31.3754H69.0142L66.9847 37.4639C66.926 37.6232 66.9009 37.7574 66.9009 37.858M69.769 37.858C69.769 38.009 69.8529 38.1096 69.9703 38.1096C70.3141 38.1096 70.7334 37.531 71.3373 36.3988L71.4714 36.4659C70.8592 37.6484 70.3812 38.2774 69.9954 38.2774C69.6516 38.2774 69.3581 37.8916 69.3581 37.3045C69.3581 37.0362 69.4503 36.6085 69.6516 36.0214L70.9347 32.1888C71.0018 31.996 71.0354 31.8618 71.0354 31.7695C71.0354 31.6018 70.9179 31.5515 70.5993 31.5515H70.2219L70.2722 31.3921H71.8907L69.8612 37.4807C69.8025 37.64 69.7774 37.7742 69.7774 37.8748M75.1866 36.3904C74.5408 37.6568 73.8699 38.2857 73.09 38.2857C72.3604 38.2857 71.8656 37.6987 71.8656 36.7594C71.8656 36.1472 72.0669 35.5099 72.4694 34.9396C73.0984 34.0339 73.8112 33.5894 74.2976 33.5894C74.826 33.5894 75.2202 33.9919 75.2202 34.5035C75.2202 35.3254 74.3396 36.0047 72.6958 36.2479C72.5449 36.6756 72.4694 37.0362 72.4694 37.3297C72.4694 37.8664 72.6791 38.118 73.1236 38.118C73.8112 38.118 74.4234 37.5142 75.0524 36.3233L75.195 36.382L75.1866 36.3904ZM74.7086 34.2687C74.7086 33.9248 74.5325 33.7487 74.2893 33.7487C73.7358 33.7487 73.2242 34.5287 72.7378 36.0969C73.9706 35.9459 74.7086 35.1157 74.7086 34.2771M78.8347 36.3988C78.1973 37.6568 77.4845 38.2941 76.7968 38.2941C76.1091 38.2941 75.6311 37.6652 75.6311 36.6923C75.6311 36.1472 75.782 35.5853 76.0755 35.0654C76.6207 34.1177 77.4006 33.5978 78.0548 33.5978C78.625 33.5978 78.9605 33.9416 78.9605 34.5119C78.9605 34.9144 78.7005 35.2079 78.3651 35.2079C78.147 35.2079 77.996 35.0486 77.996 34.8054C77.996 34.5622 78.1302 34.4112 78.4154 34.2854C78.5663 34.21 78.6502 34.1848 78.6502 34.0758C78.6502 33.9164 78.4405 33.7487 78.1051 33.7487C77.7696 33.7487 77.4593 33.9332 77.2161 34.2687C76.8136 34.8389 76.5871 35.5853 76.3523 36.4995C76.2517 36.8601 76.2181 37.1452 76.2181 37.3549C76.2181 37.858 76.4278 38.1264 76.8135 38.1264C77.4174 38.1264 78.0715 37.531 78.6837 36.3401L78.8263 36.3988H78.8347ZM81.2835 33.7068H82.2144L82.1557 33.9081H81.2164L80.0172 37.4974C79.9584 37.6568 79.9333 37.791 79.9333 37.8832C79.9333 38.0342 80.0172 38.1348 80.1346 38.1348C80.4784 38.1348 80.8977 37.5561 81.4932 36.424L81.619 36.4911C80.9984 37.6903 80.5623 38.3025 80.1094 38.3025C79.774 38.3025 79.4888 37.9587 79.4888 37.4639C79.4888 37.2123 79.5895 36.7259 79.8243 36.0466L80.5371 33.9081H79.7488L79.8075 33.7068H80.5958L81.2248 31.8618H81.9041L81.2835 33.7068ZM83.464 33.6061C83.8162 33.6061 84.0678 33.9416 84.0678 34.5287C84.0678 35.0151 83.8581 35.5602 83.531 36.2395C83.1872 36.9607 82.8937 37.4387 82.8937 37.791C82.8937 38.0174 82.9776 38.1348 83.1369 38.1348C83.4975 38.1348 84.0091 37.5226 84.5123 36.3066L84.6548 36.3653C84.1265 37.6568 83.5814 38.2941 83.1788 38.2941C82.8182 38.2941 82.5163 37.8748 82.5163 37.271C82.5163 36.7343 82.7428 36.2982 82.986 35.8034C83.4221 34.8977 83.7407 34.3441 83.7407 34.0255C83.7407 33.8577 83.6401 33.7403 83.4891 33.7403C83.1285 33.7403 82.7428 34.2519 82.1976 35.2415L82.055 35.166C82.6253 34.1261 83.0446 33.5978 83.4723 33.5978M84.1013 32.6753C83.8581 32.6753 83.6988 32.5159 83.6988 32.2559C83.6988 31.954 83.9588 31.6857 84.2355 31.6857C84.4871 31.6857 84.6465 31.8534 84.6465 32.1134C84.6465 32.4153 84.3865 32.6753 84.1013 32.6753ZM88.5378 35.166C88.5378 35.7698 88.3616 36.3737 88.0429 36.9355C87.523 37.8245 86.8269 38.3025 86.2063 38.3025C85.5857 38.3025 85.0071 37.6316 85.0071 36.6672C85.0071 35.9879 85.2586 35.2415 85.7367 34.579C86.1812 33.95 86.8353 33.6061 87.372 33.6061C88.0262 33.6061 88.5461 34.2016 88.5461 35.166M86.6256 34.2687C86.1895 34.9564 86.005 35.5853 85.8373 36.1221C85.6528 36.7091 85.5773 37.1871 85.5773 37.4639C85.5773 37.8748 85.829 38.1264 86.1896 38.1264C86.4999 38.1264 86.7598 37.9251 86.9946 37.5142C87.7326 36.1724 88.0094 35.0067 88.0094 34.4364C88.0094 34.0003 87.783 33.7487 87.3888 33.7487C87.1205 33.7487 86.8437 33.9332 86.6256 34.2603M90.4834 34.6293C90.5589 34.3945 90.6176 34.2016 90.6176 34.059C90.6176 33.8577 90.5253 33.7319 90.3911 33.7319C90.064 33.7319 89.6615 34.3777 89.108 35.6692L88.9571 35.6189C89.5609 34.2687 89.9634 33.5726 90.3995 33.5726C90.7266 33.5726 90.9614 33.9164 90.9614 34.4616C90.9614 34.8138 90.8608 35.2918 90.6931 35.9124C91.3724 34.3693 91.8923 33.5978 92.4123 33.5978C92.7813 33.5978 93.0916 33.9584 93.0916 34.5454C93.0916 34.9899 92.9406 35.426 92.7561 35.9124C92.4206 36.7846 92.1187 37.3884 92.1187 37.8245C92.1187 38.0174 92.1942 38.1096 92.3368 38.1096C92.7225 38.1096 93.0161 37.531 93.5696 36.4072L93.7037 36.4743C93.1335 37.6735 92.7812 38.2941 92.3368 38.2941C91.9761 38.2941 91.6575 37.9335 91.6575 37.38C91.6575 37.0865 91.733 36.684 91.9007 36.2646L92.4542 34.9312C92.6051 34.5706 92.6638 34.2687 92.6638 34.1009C92.6638 33.8745 92.58 33.7655 92.4123 33.7655C91.8336 33.7655 91.0369 35.2331 90.0138 38.1767H89.3261L90.5085 34.6377L90.4834 34.6293ZM9.20248 30.2097V30C8.22966 30 7.58394 30.2851 7.2401 30.5116C5.71377 31.5347 5.22734 33.6145 5.22734 35.057C5.22734 36.4995 5.70539 38.5793 7.2401 39.6024C7.58394 39.8288 8.2045 40.114 9.20248 40.114V39.9043C8.25482 39.8792 7.62585 39.5185 7.27362 38.9734C6.8543 38.3277 6.67817 36.9523 6.67817 35.057C6.67817 33.1617 6.84592 31.7779 7.27362 31.1405C7.63424 30.5954 8.26321 30.2348 9.20248 30.2097ZM2.25858 30.5116C1.91474 30.2851 1.27735 30 0.296143 30V30.2097C1.2438 30.2348 1.87277 30.5954 2.225 31.1405C2.64432 31.7779 2.82045 33.1617 2.82045 35.057C2.82045 36.9523 2.65271 38.3361 2.225 38.9734C1.86439 39.5185 1.23542 39.8792 0.296143 39.9043V40.114C1.28574 40.114 1.91474 39.8288 2.25858 39.6024C3.7849 38.5793 4.27128 36.5078 4.27128 35.057C4.27128 33.6061 3.79329 31.5263 2.25858 30.5116Z" fill="white"/>
<g id="Group 58">
<path id="Vector_2" d="M20.2961 6.33749C20.2961 9.99846 22.8881 12.6596 26.449 12.6596C30.01 12.6596 32.625 9.99846 32.625 6.33749C32.625 2.67651 29.9947 0 26.449 0C22.9034 0 20.2961 2.69189 20.2961 6.33749ZM22.0112 6.33749C22.0112 3.57637 23.8571 1.5613 26.4567 1.5613C29.0563 1.5613 30.9022 3.57637 30.9022 6.33749C30.9022 9.0986 29.0563 11.0983 26.4567 11.0983C23.8571 11.0983 22.0112 9.0986 22.0112 6.33749ZM67.3966 0.81526L62.6588 12.4442H64.474L65.5738 9.95232H71.0653L72.1651 12.4442H73.9725V12.4289L69.2424 0.81526C69.0732 0.399939 68.6964 0.199969 68.3195 0.199969C67.9427 0.199969 67.5658 0.40763 67.4043 0.81526M68.3195 2.81495L70.4346 8.46024H66.2045L68.3195 2.81495ZM51.2837 0.207661V12.4365H58.8056V10.9214H52.9834V0.207661H51.2837ZM37.1935 0.207661V1.70743H41.1006C42.7465 1.70743 43.8464 2.50731 43.8464 4.00708C43.8464 5.50685 42.7619 6.30672 41.1006 6.30672H38.8856C37.9473 6.30672 37.1858 7.06814 37.1858 8.00646V12.4442H38.8856V8.10645C38.8856 7.93724 39.024 7.7988 39.1932 7.7988H41.2852L44.1463 12.4442H46.146L43.085 7.52192C44.5693 6.99123 45.5615 5.79142 45.5615 4.01477C45.5615 1.56899 43.6849 0.223043 41.2545 0.223043H37.1935V0.207661Z" fill="white"/>
<path id="Vector_3" d="M30.1946 17.3438H29.5178V22.2353H30.1946V17.3438Z" fill="white"/>
<path id="Vector_4" d="M41.5237 17.9667H39.2779V19.5203H41.1776V20.1279H39.2779V22.2353H38.6011V17.3438H41.5237V17.9667Z" fill="white"/>
<path id="Vector_5" d="M44.0695 17.3438H43.3927V22.2353H44.0695V17.3438Z" fill="white"/>
<path id="Vector_6" d="M49.5609 22.1354L47.0306 18.6821V22.2431H46.3538V17.6746C46.3538 17.3823 46.7075 17.2439 46.9075 17.4515L49.4379 20.9049V17.3516H50.1147V21.9201C50.1147 22.2124 49.7609 22.3508 49.5609 22.1431" fill="white"/>
<path id="Vector_7" d="M53.1064 17.3438H52.4296V22.2353H53.1064V17.3438Z" fill="white"/>
<path id="Vector_8" d="M59.1056 17.9437H57.3905V22.2353H56.7136V17.9437H54.9985V17.3438H59.1056V17.9437Z" fill="white"/>
<path id="Vector_9" d="M62.9434 20.1664V22.2353H62.2589V20.1741L60.4514 17.3438H61.2436L62.605 19.4896L63.9509 17.3438H64.7508L62.9434 20.1664Z" fill="white"/>
<path id="Vector_10" d="M35.717 22.1354L33.1866 18.6821V22.2431H32.5098V17.6746C32.5098 17.3823 32.8635 17.2439 33.0635 17.4515L35.5939 20.9049V17.3516H36.2707V21.9201C36.2707 22.2124 35.9169 22.3508 35.717 22.1431" fill="white"/>
</g>
</g>
</svg>
