<svg xmlns="http://www.w3.org/2000/svg" viewBox="0 0 146.6 85.58"><defs><style>.cls-1{fill:#000;}</style></defs><g id="Layer_2" data-name="Layer 2"><g id="Layer_1-2" data-name="Layer 1"><path class="cls-1" d="M88.69,85.5h1.16V79.36H88.69ZM82.25,83c.39-1.2.71-2.18.86-2.76h0c.15.52.44,1.36.92,2.76Zm2,1,.56,1.56h1.22l-2.21-6.14H82.43L80.31,85.5h1.14L82,83.94Zm-9.93-1.21h1.24c.84,0,1.2.36,1.2.91s-.4,1-1.13,1H74.37Zm0-.9V80.27h1.35c.59,0,.94.28.94.77s-.28.79-1,.79ZM73.24,85.5h2.65A1.88,1.88,0,0,0,78,83.67a1.5,1.5,0,0,0-1-1.42,1.37,1.37,0,0,0,.81-1.33c0-.81-.57-1.56-2-1.56H73.24V85.5ZM65,79.36V83a2.26,2.26,0,0,0,2.51,2.57C68.83,85.58,70,85,70,83V79.36H68.85V83c0,1.22-.54,1.63-1.36,1.63S66.12,84.3,66.12,83V79.36Zm-7.06.94H59a1.83,1.83,0,0,1,1.84,2.07c0,1.26-.57,2.19-1.84,2.19h-1.1Zm-1.15,5.2h2.3a2.9,2.9,0,0,0,3-3.14,2.8,2.8,0,0,0-2.93-3H56.76V85.5ZM22.05,66.69H23.5V56.63H22.05v-.28h4.17c2.43,0,4.17,2.12,4.17,5.24a6,6,0,0,1-1.76,4.56,4.14,4.14,0,0,1-3,.83H22.05v-.29Zm2.7-10.06V66.69h.84c1.2,0,2-.12,2.54-.85s.84-2.17.84-4.07c0-3.65-.49-5.14-2.84-5.14ZM37.1,63.46c0,2.13-1.3,3.7-2.76,3.7s-2.77-1.57-2.77-3.7,1.3-3.68,2.77-3.68S37.1,61.34,37.1,63.46Zm-4.29,0c0,2.33.29,3.44,1.53,3.44s1.52-1.11,1.52-3.44S35.56,60,34.34,60,32.81,61.14,32.81,63.46ZM42,59.78a1,1,0,0,1,1,1.07.67.67,0,0,1-.67.73.63.63,0,0,1-.05-1.25.7.7,0,0,1,.45.2.83.83,0,0,0-.81-.51c-.85,0-1.66,1.32-1.66,3.41v3.31h1V67H38.07v-.24h1V60.19h-1V60h2.08l.06,1.72c.35-1.24.93-1.89,1.74-1.89m4.56,7.38c-1.45,0-2.76-1.57-2.76-3.68a4.22,4.22,0,0,1,1.19-3,2.3,2.3,0,0,1,1.72-.71,1.76,1.76,0,0,1,1.75,1.78c0,.59-.33.93-.78.93a.69.69,0,0,1-.7-.7.68.68,0,0,1,.69-.7.71.71,0,0,1,.53.26A1.48,1.48,0,0,0,46.64,60C45.18,60,45,61.27,45,63.77c0,2.12.32,3.12,1.57,3.12s2-.94,2.08-2.59h.24c-.15,1.83-1,2.86-2.36,2.86m7-7c-1,0-1.84,1.25-1.84,3.29v3.29h1V67H49.48v-.23h1.05V56.6H49.48v-.26h2.16v5.51c.33-1.33,1.15-2.07,2.12-2.07s1.75.84,1.75,2.34v4.62h1V67H53.36v-.23h1V61.61C54.41,60.64,54.09,60.16,53.48,60.16Zm9,4.66c-.27,1.5-1.15,2.34-2.31,2.34-1.6,0-2.88-1.59-2.88-3.74a4.09,4.09,0,0,1,1.1-2.84,2.16,2.16,0,0,1,1.67-.8c1.32,0,2.39,1.31,2.45,3.5h-4c0,.27,0,.54,0,.78,0,1.93.5,2.83,1.76,2.83.91,0,1.7-.75,2-2.07ZM61.31,63c0-.28,0-.55,0-.79C61.32,60.71,61,60,60,60s-1.45,1-1.49,3h2.77Zm5.08,3.86a1.32,1.32,0,0,0,1.33-1.36c0-1-.76-1.33-2-2-1.09-.56-1.76-.93-1.76-2a1.68,1.68,0,0,1,1.73-1.77,2.16,2.16,0,0,1,1.57.82L68,60h0v2.61h-.16C67.5,61,66.58,60,65.64,60a.93.93,0,0,0-1,.91c0,.85.67,1.14,1.65,1.63,1.38.69,2.1,1.23,2.1,2.42a2.06,2.06,0,0,1-2,2.16,2.29,2.29,0,0,1-1.79-1l-.69.83h-.16V64.1h.16c.45,1.81,1.41,2.8,2.47,2.8m2.71-6.71V60h1.13V57.81a1.42,1.42,0,0,0,1.11-.92V60h1.31v.24H71.34V66c0,.61.09.9.52.9s1-.54,1.06-1.54h.24c-.09,1.21-.61,1.84-1.49,1.84s-1.44-.51-1.44-1.51V60.19Zm10.13,4.63c-.27,1.5-1.15,2.34-2.31,2.34-1.6,0-2.88-1.59-2.88-3.74a4.09,4.09,0,0,1,1.1-2.84,2.19,2.19,0,0,1,1.67-.8c1.32,0,2.39,1.31,2.45,3.5h-4c0,.27,0,.54,0,.78,0,1.93.51,2.83,1.76,2.83.91,0,1.71-.75,2-2.07ZM78.07,63c0-.28,0-.55,0-.79,0-1.54-.28-2.23-1.28-2.23s-1.45,1-1.5,3Zm6-3.26a1,1,0,0,1,1,1.07.67.67,0,0,1-.67.73.63.63,0,0,1,0-1.25.7.7,0,0,1,.45.2A.83.83,0,0,0,84,60c-.86,0-1.67,1.32-1.67,3.41v3.31h1V67H80.21v-.24h1V60.19h-1V60h2.07l.07,1.72c.34-1.24.92-1.89,1.73-1.89m14.15-3.6L97,61h-.2c0-.31,0-.63,0-1,0-2.35-.65-3.57-1.82-3.57-.82,0-1.6.69-2.33,2a13.19,13.19,0,0,0-1.8,6.17c0,1.45.65,2.2,1.84,2.2,1.45,0,2.65-1.22,3.64-3.72l.26.09c-1,2.6-2.34,3.92-3.82,3.92-1.83,0-3.1-1.56-3.1-3.83a8,8,0,0,1,1.14-3.91C92,57.3,93.62,56.18,95,56.18a2,2,0,0,1,1.53.76c.27.29.4.51.61.51s.65-.46.88-1.27Zm4.91,6.06a5.6,5.6,0,0,1-.78,2.78,3.73,3.73,0,0,1-2.89,2.14c-1,0-1.88-1-1.88-2.58a5.75,5.75,0,0,1,1.13-3.27,3.38,3.38,0,0,1,2.58-1.52c1,0,1.84.93,1.84,2.45m-3-1.41a11.71,11.71,0,0,0-1.25,2.92,8.05,8.05,0,0,0-.4,2.1.94.94,0,0,0,1,1c.49,0,.9-.32,1.25-1a11.38,11.38,0,0,0,1.6-4.83c0-.69-.35-1.08-1-1.08a1.53,1.53,0,0,0-1.19.81m4.48,5.68c0,.24.14.39.31.39.54,0,1.2-.91,2.14-2.69l.21.1c-1,1.86-1.7,2.85-2.32,2.85s-1-.6-1-1.53a7.29,7.29,0,0,1,.46-2l2-6a2.17,2.17,0,0,0,.17-.66c0-.27-.18-.34-.69-.34h-.6l.08-.25h2.54l-3.18,9.55A1.72,1.72,0,0,0,104.6,66.51Zm4.5,0c0,.24.13.39.31.39.54,0,1.2-.91,2.14-2.69l.21.1c-1,1.86-1.7,2.85-2.32,2.85s-1-.6-1-1.53a7.29,7.29,0,0,1,.46-2l2-6a2.17,2.17,0,0,0,.17-.66c0-.27-.18-.34-.69-.34h-.6l.08-.25h2.54l-3.18,9.55a1.72,1.72,0,0,0-.14.61m8.49-2.33c-1,2-2.06,3-3.29,3s-1.93-.93-1.93-2.4a5,5,0,0,1,.95-2.85c1-1.42,2.1-2.13,2.87-2.13a1.42,1.42,0,0,1,1.45,1.44c0,1.29-1.38,2.36-4,2.74a5.46,5.46,0,0,0-.35,1.7c0,.84.32,1.24,1,1.24,1.07,0,2-.94,3-2.81Zm-.74-3.33c0-.54-.28-.83-.66-.83q-1.31,0-2.44,3.68C115.68,63.46,116.85,62.16,116.85,60.85Zm6.47,3.33c-1,2-2.12,3-3.2,3s-1.82-1-1.82-2.52a5.14,5.14,0,0,1,.7-2.55,4,4,0,0,1,3.11-2.3,1.31,1.31,0,0,1,1.42,1.43,1,1,0,0,1-.94,1.09.58.58,0,0,1-.59-.63c0-.37.21-.61.66-.82.24-.12.38-.16.38-.33s-.33-.51-.85-.51a1.74,1.74,0,0,0-1.4.83,10.91,10.91,0,0,0-1.35,3.49,5.14,5.14,0,0,0-.22,1.35c0,.79.33,1.21,1,1.21.94,0,2-.94,2.93-2.81l.22.09ZM127.16,60h1.47l-.09.31h-1.48l-1.89,5.64a2,2,0,0,0-.13.61c0,.24.13.39.32.39.53,0,1.19-.91,2.13-2.69l.2.11c-1,1.88-1.66,2.84-2.37,2.84-.52,0-1-.54-1-1.32a8.66,8.66,0,0,1,.53-2.23L126,60.26h-1.24l.09-.31h1.24l1-2.9h1.06l-1,2.9Zm3.43-.16c.55,0,.94.52.94,1.44a6.78,6.78,0,0,1-.84,2.7,8,8,0,0,0-1,2.43q0,.54.39.54c.57,0,1.36-1,2.15-2.87l.23.09c-.83,2-1.69,3-2.32,3s-1-.66-1-1.6a5.23,5.23,0,0,1,.74-2.31A10.61,10.61,0,0,0,131,60.46a.41.41,0,0,0-.39-.45c-.57,0-1.18.81-2,2.36l-.22-.12C129.26,60.62,129.92,59.79,130.59,59.79Zm1-1.46a.59.59,0,0,1-.63-.65.9.9,0,0,1,.83-.9.62.62,0,0,1,.65.67A.89.89,0,0,1,131.58,58.33Zm7,3.91a5.6,5.6,0,0,1-.78,2.78,3.72,3.72,0,0,1-2.88,2.14c-1,0-1.89-1-1.89-2.58a5.76,5.76,0,0,1,1.14-3.27,3.35,3.35,0,0,1,2.57-1.52c1,0,1.84.93,1.84,2.45m-3-1.41a11.27,11.27,0,0,0-1.24,2.92,8.05,8.05,0,0,0-.4,2.1.93.93,0,0,0,1,1c.49,0,.9-.32,1.26-1a11.38,11.38,0,0,0,1.6-4.83c0-.69-.36-1.08-1-1.08a1.54,1.54,0,0,0-1.2.81m6.06.58a3.33,3.33,0,0,0,.21-.89c0-.32-.15-.51-.36-.51-.51,0-1.15,1-2,3.05l-.24-.08c1-2.12,1.59-3.21,2.26-3.21.51,0,.88.54.88,1.39a9.72,9.72,0,0,1-.42,2.27c1.07-2.42,1.89-3.63,2.7-3.63.58,0,1.06.57,1.06,1.48a6.61,6.61,0,0,1-.52,2.14,11.33,11.33,0,0,0-1,3c0,.3.12.45.34.45.6,0,1.07-.91,1.93-2.68l.21.11c-.89,1.88-1.45,2.86-2.15,2.86s-1.06-.57-1.06-1.44a4.86,4.86,0,0,1,.39-1.75l.86-2.1a3.67,3.67,0,0,0,.33-1.29c0-.37-.13-.53-.4-.53-.91,0-2.15,2.31-3.77,6.92h-1.07l1.85-5.56ZM14,54.48v-.33A5.52,5.52,0,0,0,10.9,55c-2.4,1.6-3.16,4.86-3.16,7.14s.76,5.53,3.16,7.13A5.44,5.44,0,0,0,14,70v-.33a3.51,3.51,0,0,1-3-1.46c-.67-1-.94-3.17-.94-6.15s.27-5.15.94-6.16a3.51,3.51,0,0,1,3-1.46M3.08,55A5.52,5.52,0,0,0,0,54.15v.33a3.51,3.51,0,0,1,3,1.46C3.7,57,4,59.11,4,62.1S3.7,67.24,3,68.25a3.51,3.51,0,0,1-3,1.46V70a5.44,5.44,0,0,0,3.08-.81c2.4-1.6,3.15-4.87,3.15-7.13S5.48,56.56,3.08,55"/><rect class="cls-1" y="45.86" width="146.6" height="0.5"/><path class="cls-1" d="M27.37,10.85c0,6.27,4.44,10.83,10.53,10.83s10.57-4.56,10.57-10.83S44,0,37.9,0,27.37,4.61,27.37,10.85Zm2.93,0c0-4.73,3.16-8.17,7.6-8.17s7.61,3.44,7.61,8.17S42.35,19,37.9,19,30.3,15.58,30.3,10.85ZM108,1.4,99.88,21.3H103L104.87,17h9.39l1.88,4.27h3.1v0L111.14,1.4a1.7,1.7,0,0,0-3.15,0Zm1.57,3.43,3.62,9.67H106ZM80.4.37V21.3H93.27V18.71h-10V.37ZM56.28.37V2.93H63c2.82,0,4.7,1.37,4.7,3.93S65.82,10.8,63,10.8H59.18a2.9,2.9,0,0,0-2.9,2.9v7.6h2.9V13.88a.52.52,0,0,1,.52-.52h3.58l4.9,7.94H71.6l-5.24-8.43a6.08,6.08,0,0,0,4.24-6c0-4.18-3.22-6.49-7.37-6.49Z"/><rect class="cls-1" x="43.14" y="29.68" width="1.16" height="8.38"/><polygon class="cls-1" points="63.7 30.75 59.85 30.75 59.85 33.41 63.11 33.41 63.11 34.46 59.85 34.46 59.85 38.06 58.69 38.06 58.69 29.68 63.7 29.68 63.7 30.75"/><rect class="cls-1" x="66.9" y="29.68" width="1.16" height="8.38"/><path class="cls-1" d="M77.46,37.88,73.13,32v6.09H72V30.23a.55.55,0,0,1,1-.38l4.33,5.91V29.68h1.16V37.5A.55.55,0,0,1,77.46,37.88Z"/><rect class="cls-1" x="82.37" y="29.68" width="1.16" height="8.38"/><polygon class="cls-1" points="93.8 30.72 90.86 30.72 90.86 38.06 89.69 38.06 89.69 30.72 86.77 30.72 86.77 29.68 93.8 29.68 93.8 30.72"/><polygon class="cls-1" points="100.36 34.51 100.36 38.06 99.2 38.06 99.2 34.54 96.1 29.69 97.45 29.69 99.78 33.36 102.09 29.69 103.46 29.69 100.36 34.51"/><path class="cls-1" d="M53.75,37.88,49.43,32v6.09H48.26V30.23a.56.56,0,0,1,1-.38l4.32,5.91V29.68H54.7V37.5A.55.55,0,0,1,53.75,37.88Z"/></g></g></svg>