<svg xmlns="http://www.w3.org/2000/svg" width="112" height="67" viewBox="0 0 112 67" fill="none">
  <path d="M67.6199 65.9343H68.4899V61.2743H67.6199V65.9343ZM62.72 64.0243C63.02 63.1143 63.2599 62.3643 63.3699 61.9343C63.4799 62.3343 63.7099 62.9643 64.0699 64.0243H62.71H62.72ZM64.28 64.7543L64.71 65.9443H65.6299L63.95 61.2843H62.8599L61.2499 65.9443H62.1099L62.52 64.7543H64.28ZM56.7399 63.8343H57.6799C58.3099 63.8343 58.59 64.1143 58.59 64.5343C58.59 65.0143 58.29 65.2543 57.73 65.2543H56.7399V63.8343ZM56.7399 63.1543V61.9643H57.7599C58.2099 61.9643 58.48 62.1743 58.48 62.5543C58.48 62.9343 58.26 63.1543 57.72 63.1543H56.7399ZM55.8799 65.9443H57.89C58.84 65.9443 59.48 65.3843 59.48 64.5543C59.48 63.9243 59.04 63.5943 58.72 63.4743C59.05 63.3443 59.34 62.9943 59.34 62.4643C59.34 61.8443 58.9 61.2743 57.83 61.2743H55.8799V65.9343V65.9443ZM49.6 61.2843V64.0543C49.6 65.5643 50.4799 66.0043 51.4999 66.0043C52.5199 66.0043 53.4199 65.5943 53.4199 64.0243V61.2843H52.5499V64.0743C52.5499 64.9943 52.14 65.3143 51.52 65.3143C50.99 65.3143 50.48 65.0343 50.48 64.0743V61.2843H49.6099H49.6ZM44.2399 61.9943H45.08C46.07 61.9943 46.48 62.7443 46.48 63.5643C46.48 64.5243 46.04 65.2243 45.08 65.2243H44.2399V61.9943ZM43.3699 65.9443H45.1199C46.5199 65.9443 47.3799 64.9243 47.3799 63.5643C47.3799 62.2043 46.49 61.2843 45.15 61.2843H43.3699V65.9443ZM16.9999 51.6643H18.1V44.0243H16.9999V43.8043H20.1699C22.0199 43.8043 23.34 45.4143 23.34 47.7943C23.34 49.2843 22.8299 50.5343 21.9999 51.2543C21.3699 51.7943 20.68 51.8843 19.73 51.8843H17.0099V51.6643H16.9999ZM19.0599 44.0243V51.6643H19.7C20.61 51.6643 21.2099 51.5743 21.6299 51.0143C22.1099 50.3743 22.27 49.3643 22.27 47.9243C22.27 45.1543 21.8899 44.0143 20.1099 44.0143H19.0599V44.0243ZM28.4399 49.2143C28.4399 50.8243 27.45 52.0243 26.34 52.0243C25.23 52.0243 24.2399 50.8343 24.2399 49.2143C24.2399 47.5943 25.23 46.4243 26.34 46.4243C27.45 46.4243 28.4399 47.6043 28.4399 49.2143ZM25.1799 49.2143C25.1799 50.9843 25.4 51.8243 26.34 51.8243C27.28 51.8243 27.4999 50.9843 27.4999 49.2143C27.4999 47.4443 27.27 46.6043 26.34 46.6043C25.41 46.6043 25.1799 47.4543 25.1799 49.2143ZM32.1199 46.4243C32.5299 46.4243 32.8799 46.7543 32.8799 47.2343C32.8799 47.5543 32.6699 47.7943 32.3699 47.7943C32.0999 47.7943 31.9 47.6043 31.9 47.3243C31.9 47.0443 32.08 46.8443 32.33 46.8443C32.44 46.8443 32.5599 46.8943 32.6699 46.9943C32.5599 46.7343 32.3399 46.6043 32.0599 46.6043C31.4099 46.6043 30.7999 47.6043 30.7999 49.1943V51.7043H31.59V51.8843H29.1699V51.7043H29.95V46.7343H29.1699V46.5543H30.7499L30.7999 47.8543C31.0599 46.9143 31.4999 46.4243 32.1199 46.4243ZM35.59 52.0243C34.49 52.0243 33.4899 50.8343 33.4899 49.2343C33.4899 48.3643 33.82 47.5443 34.4 46.9643C34.76 46.6043 35.18 46.4243 35.71 46.4243C36.45 46.4243 37.04 47.0243 37.04 47.7743C37.04 48.2143 36.79 48.4743 36.45 48.4743C36.1399 48.4743 35.9199 48.2343 35.9199 47.9443C35.9199 47.6543 36.1399 47.4143 36.4399 47.4143C36.5999 47.4143 36.72 47.4843 36.85 47.6143C36.72 46.9743 36.29 46.6043 35.7 46.6043C34.59 46.6043 34.4399 47.5443 34.4399 49.4543C34.4399 51.0543 34.6799 51.8143 35.6299 51.8143C36.4799 51.8143 37.12 51.0943 37.21 49.8443H37.39C37.28 51.2343 36.59 52.0143 35.6 52.0143M40.89 46.6943C40.16 46.6943 39.4899 47.6443 39.4899 49.1943V51.6943H40.27V51.8743H37.85V51.6943H38.64V43.9943H37.85V43.8043H39.4899V47.9843C39.7399 46.9743 40.36 46.4143 41.1 46.4143C41.84 46.4143 42.4299 47.0543 42.4299 48.1843V51.6943H43.21V51.8743H40.79V51.6943H41.58V47.8043C41.58 47.0643 41.3399 46.7043 40.8699 46.7043M47.7 50.2443C47.49 51.3843 46.8299 52.0143 45.9399 52.0143C44.7299 52.0143 43.7599 50.8143 43.7599 49.1743C43.7599 48.3543 44.03 47.6443 44.59 47.0143C44.95 46.6043 45.3799 46.4143 45.8599 46.4143C46.8599 46.4143 47.68 47.4043 47.72 49.0743H44.7C44.69 49.2743 44.6799 49.4843 44.6799 49.6643C44.6799 51.1243 45.07 51.8143 46.02 51.8143C46.71 51.8143 47.3099 51.2443 47.5099 50.2443H47.7ZM46.8099 48.8943C46.8199 48.6743 46.8199 48.4743 46.8199 48.2943C46.8199 47.1243 46.6 46.6043 45.84 46.6043C45.08 46.6043 44.74 47.3343 44.7 48.8943H46.7999H46.8099ZM50.6699 51.8243C51.2499 51.8243 51.6799 51.3643 51.6799 50.7943C51.6799 50.0643 51.0999 49.7843 50.1199 49.2843C49.2899 48.8543 48.78 48.5843 48.78 47.7643C48.78 46.9443 49.36 46.4243 50.1 46.4243C50.51 46.4243 50.91 46.6243 51.29 47.0443L51.89 46.5443H51.91V48.5343H51.78C51.5 47.3043 50.8 46.6143 50.09 46.6143C49.63 46.6143 49.3199 46.9243 49.3199 47.3043C49.3199 47.9443 49.83 48.1643 50.58 48.5443C51.63 49.0643 52.1699 49.4743 52.1699 50.3843C52.1699 51.2943 51.5099 52.0243 50.6699 52.0243C50.1699 52.0243 49.6899 51.7743 49.3099 51.2843L48.79 51.9043H48.6699V49.7043H48.79C49.13 51.0743 49.86 51.8243 50.66 51.8243M52.72 46.7243V46.5443H53.58V44.9243C53.98 44.8543 54.2499 44.6143 54.4199 44.2243V46.5543H55.4199V46.7343H54.4199V51.1143C54.4199 51.5843 54.4899 51.7943 54.8199 51.7943C55.2499 51.7943 55.5699 51.3843 55.6199 50.6243H55.7999C55.7299 51.5443 55.34 52.0243 54.66 52.0243C53.93 52.0243 53.5699 51.6343 53.5699 50.8743V46.7243H52.71H52.72ZM60.4199 50.2443C60.2199 51.3843 59.55 52.0143 58.66 52.0143C57.45 52.0143 56.48 50.8143 56.48 49.1743C56.48 48.3543 56.7499 47.6443 57.3099 47.0143C57.6699 46.6043 58.11 46.4143 58.58 46.4143C59.58 46.4143 60.3999 47.4043 60.4399 49.0743H57.4199C57.4099 49.2743 57.4 49.4843 57.4 49.6643C57.4 51.1243 57.7899 51.8143 58.7399 51.8143C59.4299 51.8143 60.03 51.2443 60.23 50.2443H60.4199ZM59.54 48.8943C59.55 48.6743 59.5499 48.4743 59.5499 48.2943C59.5499 47.1243 59.3299 46.6043 58.5699 46.6043C57.8099 46.6043 57.4699 47.3343 57.4299 48.8943H59.53H59.54ZM64.1099 46.4143C64.5199 46.4143 64.8699 46.7443 64.8699 47.2243C64.8699 47.5443 64.6699 47.7843 64.3599 47.7843C64.0899 47.7843 63.9 47.5943 63.9 47.3143C63.9 47.0343 64.08 46.8343 64.33 46.8343C64.45 46.8343 64.5599 46.8843 64.6699 46.9843C64.5599 46.7243 64.3399 46.5943 64.0599 46.5943C63.4099 46.5943 62.7999 47.5943 62.7999 49.1843V51.6943H63.59V51.8743H61.1699V51.6943H61.95V46.7243H61.1699V46.5443H62.7499L62.7999 47.8443C63.0599 46.9043 63.4999 46.4143 64.1199 46.4143M74.8699 43.6743L73.91 47.3343H73.7499C73.7699 47.0943 73.77 46.8543 73.77 46.5943C73.77 44.8143 73.2699 43.8843 72.3799 43.8843C71.7599 43.8843 71.1599 44.4043 70.6099 45.4443C69.6899 47.1343 69.2499 48.7343 69.2499 50.1343C69.2499 51.2343 69.74 51.8043 70.65 51.8043C71.75 51.8043 72.66 50.8743 73.41 48.9743L73.6099 49.0443C72.8299 51.0143 71.8299 52.0243 70.7 52.0243C69.31 52.0243 68.35 50.8443 68.35 49.1143C68.35 48.1843 68.63 47.1643 69.21 46.1543C70.13 44.5443 71.3599 43.6943 72.3699 43.6943C72.8199 43.6943 73.16 43.8843 73.53 44.2743C73.73 44.4943 73.8399 44.6643 73.9999 44.6643C74.2699 44.6643 74.4899 44.3143 74.6699 43.6943H74.8599L74.8699 43.6743ZM78.6 48.2743C78.6 48.9943 78.3999 49.7143 78.0099 50.3843C77.3899 51.4443 76.5599 52.0143 75.8199 52.0143C75.0799 52.0143 74.39 51.2143 74.39 50.0643C74.39 49.2543 74.6899 48.3643 75.2499 47.5743C75.7799 46.8243 76.56 46.4143 77.21 46.4143C77.99 46.4143 78.6099 47.1243 78.6099 48.2743M76.3199 47.2043C75.7999 48.0243 75.5799 48.7743 75.3799 49.4143C75.1599 50.1143 75.08 50.6843 75.08 51.0143C75.08 51.5043 75.3799 51.8043 75.7999 51.8043C76.1699 51.8043 76.4799 51.5643 76.7599 51.0743C77.6499 49.4743 77.97 48.0843 77.97 47.4043C77.97 46.8843 77.7 46.5843 77.23 46.5843C76.91 46.5843 76.5799 46.8043 76.3199 47.1943M79.72 51.5043C79.72 51.6843 79.82 51.8043 79.96 51.8043C80.37 51.8043 80.87 51.1143 81.59 49.7643L81.7499 49.8443C81.0199 51.2543 80.4499 52.0043 79.9899 52.0043C79.5799 52.0043 79.23 51.5443 79.23 50.8443C79.23 50.5243 79.34 50.0143 79.58 49.3143L81.1099 44.7443C81.1899 44.5143 81.2399 44.3543 81.2399 44.2443C81.2399 44.0443 81.1 43.9843 80.71 43.9843H80.2599L80.3199 43.7943H82.2499L79.83 51.0543C79.76 51.2443 79.73 51.4043 79.73 51.5243M83.15 51.5243C83.15 51.7043 83.25 51.8243 83.39 51.8243C83.8 51.8243 84.3 51.1343 85.02 49.7843L85.1799 49.8643C84.4499 51.2743 83.8799 52.0243 83.4199 52.0243C83.0099 52.0243 82.66 51.5643 82.66 50.8643C82.66 50.5443 82.77 50.0343 83.0099 49.3343L84.54 44.7643C84.62 44.5343 84.66 44.3743 84.66 44.2643C84.66 44.0643 84.52 44.0043 84.14 44.0043H83.6899L83.7499 43.8143H85.6799L83.2599 51.0743C83.1899 51.2643 83.16 51.4243 83.16 51.5443M89.6099 49.7743C88.8399 51.2843 88.0399 52.0343 87.1099 52.0343C86.2399 52.0343 85.65 51.3343 85.65 50.2143C85.65 49.4843 85.8899 48.7243 86.3699 48.0443C87.1199 46.9643 87.9699 46.4343 88.5499 46.4343C89.1799 46.4343 89.65 46.9143 89.65 47.5243C89.65 48.5043 88.6 49.3143 86.64 49.6043C86.46 50.1143 86.3699 50.5443 86.3699 50.8943C86.3699 51.5343 86.62 51.8343 87.15 51.8343C87.97 51.8343 88.7 51.1143 89.45 49.6943L89.6199 49.7643L89.6099 49.7743ZM89.04 47.2443C89.04 46.8343 88.83 46.6243 88.54 46.6243C87.88 46.6243 87.2699 47.5543 86.6899 49.4243C88.1599 49.2443 89.04 48.2543 89.04 47.2543M93.96 49.7843C93.2 51.2843 92.35 52.0443 91.53 52.0443C90.71 52.0443 90.14 51.2943 90.14 50.1343C90.14 49.4843 90.3199 48.8143 90.6699 48.1943C91.3199 47.0643 92.25 46.4443 93.03 46.4443C93.71 46.4443 94.1099 46.8543 94.1099 47.5343C94.1099 48.0143 93.8 48.3643 93.4 48.3643C93.14 48.3643 92.96 48.1743 92.96 47.8843C92.96 47.5943 93.12 47.4143 93.46 47.2643C93.64 47.1743 93.7399 47.1443 93.7399 47.0143C93.7399 46.8243 93.49 46.6243 93.09 46.6243C92.69 46.6243 92.32 46.8443 92.03 47.2443C91.55 47.9243 91.2799 48.8143 90.9999 49.9043C90.8799 50.3343 90.84 50.6743 90.84 50.9243C90.84 51.5243 91.0899 51.8443 91.5499 51.8443C92.2699 51.8443 93.05 51.1343 93.78 49.7143L93.95 49.7843H93.96ZM96.8799 46.5743H97.9899L97.9199 46.8143H96.7999L95.3699 51.0943C95.2999 51.2843 95.27 51.4443 95.27 51.5543C95.27 51.7343 95.3699 51.8543 95.5099 51.8543C95.92 51.8543 96.4199 51.1643 97.1299 49.8143L97.28 49.8943C96.54 51.3243 96.02 52.0543 95.48 52.0543C95.08 52.0543 94.7399 51.6443 94.7399 51.0543C94.7399 50.7543 94.86 50.1743 95.14 49.3643L95.9899 46.8143H95.0499L95.1199 46.5743H96.0599L96.8099 44.3743H97.6199L96.8799 46.5743ZM99.48 46.4543C99.9 46.4543 100.2 46.8543 100.2 47.5543C100.2 48.1343 99.9499 48.7843 99.5599 49.5943C99.1499 50.4543 98.7999 51.0243 98.7999 51.4443C98.7999 51.7143 98.9 51.8543 99.09 51.8543C99.52 51.8543 100.13 51.1243 100.73 49.6743L100.9 49.7443C100.27 51.2843 99.62 52.0443 99.14 52.0443C98.71 52.0443 98.35 51.5443 98.35 50.8243C98.35 50.1843 98.62 49.6643 98.91 49.0743C99.43 47.9943 99.8099 47.3343 99.8099 46.9543C99.8099 46.7543 99.6899 46.6143 99.5099 46.6143C99.0799 46.6143 98.62 47.2243 97.97 48.4043L97.7999 48.3143C98.4799 47.0743 98.9799 46.4443 99.4899 46.4443M100.24 45.3443C99.9499 45.3443 99.7599 45.1543 99.7599 44.8443C99.7599 44.4843 100.07 44.1643 100.4 44.1643C100.7 44.1643 100.89 44.3643 100.89 44.6743C100.89 45.0343 100.58 45.3443 100.24 45.3443ZM105.53 48.3143C105.53 49.0343 105.32 49.7543 104.94 50.4243C104.32 51.4843 103.49 52.0543 102.75 52.0543C102.01 52.0543 101.32 51.2543 101.32 50.1043C101.32 49.2943 101.62 48.4043 102.19 47.6143C102.72 46.8643 103.5 46.4543 104.14 46.4543C104.92 46.4543 105.54 47.1643 105.54 48.3143M103.25 47.2443C102.73 48.0643 102.51 48.8143 102.31 49.4543C102.09 50.1543 102 50.7243 102 51.0543C102 51.5443 102.3 51.8443 102.73 51.8443C103.1 51.8443 103.41 51.6043 103.69 51.1143C104.57 49.5143 104.9 48.1243 104.9 47.4443C104.9 46.9243 104.63 46.6243 104.16 46.6243C103.84 46.6243 103.51 46.8443 103.25 47.2343M107.85 47.6743C107.94 47.3943 108.01 47.1643 108.01 46.9943C108.01 46.7543 107.9 46.6043 107.74 46.6043C107.35 46.6043 106.87 47.3743 106.21 48.9143L106.03 48.8543C106.75 47.2443 107.23 46.4143 107.75 46.4143C108.14 46.4143 108.42 46.8243 108.42 47.4743C108.42 47.8943 108.3 48.4643 108.1 49.2043C108.91 47.3643 109.53 46.4443 110.15 46.4443C110.59 46.4443 110.96 46.8743 110.96 47.5743C110.96 48.1043 110.78 48.6243 110.56 49.2043C110.16 50.2443 109.8 50.9643 109.8 51.4843C109.8 51.7143 109.89 51.8243 110.06 51.8243C110.52 51.8243 110.87 51.1343 111.53 49.7943L111.69 49.8743C111.01 51.3043 110.59 52.0443 110.06 52.0443C109.63 52.0443 109.25 51.6143 109.25 50.9543C109.25 50.6043 109.34 50.1243 109.54 49.6243L110.2 48.0343C110.38 47.6043 110.45 47.2443 110.45 47.0443C110.45 46.7743 110.35 46.6443 110.15 46.6443C109.46 46.6443 108.51 48.3943 107.29 51.9043H106.47L107.88 47.6843L107.85 47.6743ZM10.9299 42.4043V42.1543C9.76993 42.1543 8.99997 42.4943 8.58997 42.7643C6.76997 43.9843 6.18994 46.4643 6.18994 48.1843C6.18994 49.9043 6.75997 52.3843 8.58997 53.6043C8.99997 53.8743 9.73993 54.2143 10.9299 54.2143V53.9643C9.79993 53.9343 9.04994 53.5043 8.62994 52.8543C8.12994 52.0843 7.91992 50.4443 7.91992 48.1843C7.91992 45.9243 8.11994 44.2743 8.62994 43.5143C9.05994 42.8643 9.80993 42.4343 10.9299 42.4043ZM2.64996 42.7643C2.23996 42.4943 1.47994 42.1543 0.309937 42.1543V42.4043C1.43994 42.4343 2.18992 42.8643 2.60992 43.5143C3.10992 44.2743 3.31995 45.9243 3.31995 48.1843C3.31995 50.4443 3.11992 52.0943 2.60992 52.8543C2.17992 53.5043 1.42994 53.9343 0.309937 53.9643V54.2143C1.48994 54.2143 2.23996 53.8743 2.64996 53.6043C4.46996 52.3843 5.04993 49.9143 5.04993 48.1843C5.04993 46.4543 4.47996 43.9743 2.64996 42.7643Z" fill="white"/>
  <path d="M21.03 9.23414C21.03 13.9941 24.4 17.4541 29.03 17.4541C33.66 17.4541 37.06 13.9941 37.06 9.23414C37.06 4.47414 33.64 0.994141 29.03 0.994141C24.42 0.994141 21.03 4.49414 21.03 9.23414ZM23.26 9.23414C23.26 5.64414 25.66 3.02414 29.04 3.02414C32.42 3.02414 34.82 5.64414 34.82 9.23414C34.82 12.8241 32.42 15.4241 29.04 15.4241C25.66 15.4241 23.26 12.8241 23.26 9.23414ZM82.27 2.05414L76.11 17.1741H78.47L79.9 13.9341H87.04L88.47 17.1741H90.82V17.1541L84.67 2.05414C84.45 1.51414 83.96 1.25414 83.47 1.25414C82.98 1.25414 82.49 1.52414 82.28 2.05414M83.47 4.65414L86.22 11.9941H80.72L83.47 4.65414ZM61.32 1.26414V17.1641H71.1V15.1941H63.53V1.26414H61.32ZM43 1.26414V3.21414H48.08C50.22 3.21414 51.65 4.25414 51.65 6.20414C51.65 8.15414 50.24 9.19414 48.08 9.19414H45.2C43.98 9.19414 42.99 10.1841 42.99 11.4041V17.1741H45.2V11.5341C45.2 11.3141 45.38 11.1341 45.6 11.1341H48.32L52.04 17.1741H54.64L50.66 10.7741C52.59 10.0841 53.88 8.52414 53.88 6.21414C53.88 3.03414 51.44 1.28414 48.28 1.28414H43V1.26414Z" fill="white"/>
  <path d="M33.9 23.5449H33.02V29.9049H33.9V23.5449Z" fill="white"/>
  <path d="M48.6299 24.3549H45.71V26.3749H48.1799V27.1649H45.71V29.9049H44.83V23.5449H48.6299V24.3549Z" fill="white"/>
  <path d="M51.9399 23.5449H51.0599V29.9049H51.9399V23.5449Z" fill="white"/>
  <path d="M59.0799 29.7747L55.7899 25.2847V29.9147H54.9099V23.9747C54.9099 23.5947 55.3699 23.4147 55.6299 23.6847L58.9199 28.1747V23.5547H59.7999V29.4947C59.7999 29.8747 59.3399 30.0547 59.0799 29.7847" fill="white"/>
  <path d="M63.6899 23.5449H62.8099V29.9049H63.6899V23.5449Z" fill="white"/>
  <path d="M71.4899 24.3249H69.2599V29.9049H68.3799V24.3249H66.1499V23.5449H71.4899V24.3249Z" fill="white"/>
  <path d="M76.48 27.2149V29.9049H75.59V27.2249L73.24 23.5449H74.27L76.04 26.3349L77.79 23.5449H78.83L76.48 27.2149Z" fill="white"/>
  <path d="M41.0799 29.7747L37.7899 25.2847V29.9147H36.9099V23.9747C36.9099 23.5947 37.3699 23.4147 37.6299 23.6847L40.9199 28.1747V23.5547H41.7999V29.4947C41.7999 29.8747 41.3399 30.0547 41.0799 29.7847" fill="white"/>
</svg>